<?xml version="1.0" encoding="UTF-8" standalone="no"?><svg xmlns="http://www.w3.org/2000/svg" xmlns:xlink="http://www.w3.org/1999/xlink" contentScriptType="application/ecmascript" contentStyleType="text/css" height="170px" preserveAspectRatio="none" style="width:233px;height:170px;" version="1.1" viewBox="0 0 233 170" width="233px" zoomAndPan="magnify"><defs/><g><ellipse cx="187.8492" cy="38.242" fill="#F8F8F8" rx="17.8492" ry="13.242" style="stroke: #383838; stroke-width: 0.5;"/><text fill="#000000" font-family="Tahoma, sans-serif" font-size="12" lengthAdjust="spacingAndGlyphs" textLength="21" x="177.3492" y="41.9842">App</text><ellipse cx="49.1838" cy="38.242" fill="#F8F8F8" rx="41.1838" ry="13.242" style="stroke: #383838; stroke-width: 0.5;"/><text fill="#000000" font-family="Tahoma, sans-serif" font-size="12" font-weight="bold" lengthAdjust="spacingAndGlyphs" textLength="54" x="22.1838" y="41.9842">App.test</text><ellipse cx="47.1838" cy="88.242" fill="#F8F8F8" rx="41.1838" ry="13.242" style="stroke: #383838; stroke-width: 0.5;"/><text fill="#000000" font-family="Tahoma, sans-serif" font-size="12" lengthAdjust="spacingAndGlyphs" textLength="54" x="20.1838" y="91.9842">Bookings</text><!--MD5=[c514e30ffd53274da92ac8a0a6cc7c71]
entity _context--><rect fill="#F8F8F8" height="34.4844" rx="3" ry="3" style="stroke: #000000; stroke-width: 0.5;" width="63" x="125.5" y="125"/><text fill="#000000" font-family="Tahoma, sans-serif" font-size="12" lengthAdjust="spacingAndGlyphs" textLength="43" x="135.5" y="147.0059">context</text><ellipse cx="188.0919" cy="88.242" fill="#F8F8F8" rx="22.0919" ry="13.242" style="stroke: #383838; stroke-width: 0.5;"/><text fill="#000000" font-family="Tahoma, sans-serif" font-size="12" lengthAdjust="spacingAndGlyphs" textLength="27" x="174.5919" y="91.9842">Error</text><ellipse cx="47.2487" cy="142.242" fill="#F8F8F8" rx="27.7487" ry="13.242" style="stroke: #383838; stroke-width: 0.5;"/><text fill="#000000" font-family="Tahoma, sans-serif" font-size="12" lengthAdjust="spacingAndGlyphs" textLength="35" x="29.7487" y="145.9842">helper</text><ellipse cx="130.2487" cy="38.242" fill="#F8F8F8" rx="27.7487" ry="13.242" style="stroke: #383838; stroke-width: 0.5;"/><text fill="#000000" font-family="Tahoma, sans-serif" font-size="12" font-weight="bold" lengthAdjust="spacingAndGlyphs" textLength="35" x="112.7487" y="41.9842">index</text><ellipse cx="126.8345" cy="88.242" fill="#F8F8F8" rx="26.3345" ry="13.242" style="stroke: #383838; stroke-width: 0.5;"/><text fill="#000000" font-family="Tahoma, sans-serif" font-size="12" lengthAdjust="spacingAndGlyphs" textLength="33" x="110.3345" y="91.9842">Meals</text><!--MD5=[0999d1585e35b25b0e7cc733aac5b3ed]
link App to Bookings--><path d="M173.882,46.22 C170.371,47.892 166.585,49.592 163,51 C136.247,61.5065 105.0979,71.0305 81.818,77.6398 " fill="none" id="App-&gt;Bookings" style="stroke: #000000; stroke-width: 0.5;"/><polygon fill="#000000" points="76.9741,79.0053,86.7218,80.4135,81.7866,77.6488,84.5513,72.7136,76.9741,79.0053" style="stroke: #000000; stroke-width: 0.5;"/><!--MD5=[aec284183bff42bfc4e6b09b2e549c79]
link App to _context--><path d="M198.67,48.898 C205.046,55.571 212.557,64.9643 216,75 C219.75,85.9301 221.413,90.7906 216,101 C210.869,110.6779 202.232,118.4454 193.128,124.4665 " fill="none" id="App-&gt;_context" style="stroke: #000000; stroke-width: 0.5;"/><polygon fill="#000000" points="188.635,127.2828,198.3852,125.892,192.8715,124.6272,194.1362,119.1136,188.635,127.2828" style="stroke: #000000; stroke-width: 0.5;"/><!--MD5=[d6ef455764d409e55a1708f15e43e302]
link App to Error--><path d="M188,51.112 C188,56.641 188,63.2953 188,69.3644 " fill="none" id="App-&gt;Error" style="stroke: #000000; stroke-width: 0.5;"/><polygon fill="#000000" points="188,74.7245,192,65.7245,188,69.7245,184,65.7245,188,74.7245" style="stroke: #000000; stroke-width: 0.5;"/><!--MD5=[5bbc6604c4b3be671b9c2ad0da344db9]
link App to Meals--><path d="M176.526,48.028 C167.386,55.221 154.45,65.4 144.091,73.5516 " fill="none" id="App-&gt;Meals" style="stroke: #000000; stroke-width: 0.5;"/><polygon fill="#000000" points="140.116,76.6788,149.6626,74.2575,144.0456,73.5871,144.7159,67.9701,140.116,76.6788" style="stroke: #000000; stroke-width: 0.5;"/><!--MD5=[ade7508b8fd28882668ed72a2a00701f]
link <b>App.test</b> to App--><path d="M68.3868,26.326 C78.1096,21.141 90.2854,15.624 102,13 C125.853,7.657 133.949,4.864 157,13 C163.214,15.193 169.098,19.219 174.037,23.409 " fill="none" id="&lt;b&gt;App.test&lt;/b&gt;-&gt;App" style="stroke: #000000; stroke-width: 1.0;"/><polygon fill="#000000" points="177.949,26.93,173.9354,17.9361,174.2326,23.5851,168.5836,23.8823,177.949,26.93" style="stroke: #000000; stroke-width: 1.0;"/><!--MD5=[4d0f54d7baad6eedfac81a1acfac93be]
link <b>App.test</b> to Bookings--><path d="M48.4953,51.112 C48.265,56.641 47.9877,63.2953 47.7348,69.3644 " fill="none" id="&lt;b&gt;App.test&lt;/b&gt;-&gt;Bookings" style="stroke: #000000; stroke-width: 1.0;"/><polygon fill="#000000" points="47.5115,74.7245,51.8829,65.8989,47.7198,69.7288,43.8899,65.5657,47.5115,74.7245" style="stroke: #000000; stroke-width: 1.0;"/><!--MD5=[e4f9beee12d5f130b6bc7fdb2134e200]
link <b>App.test</b> to Error--><path d="M77.2346,47.59 C99.5762,54.544 131.485,64.8216 159,75 C161.306,75.8531 163.7,76.7782 166.08,77.7236 " fill="none" id="&lt;b&gt;App.test&lt;/b&gt;-&gt;Error" style="stroke: #000000; stroke-width: 1.0;"/><polygon fill="#000000" points="170.91,79.6758,164.0636,72.5958,166.274,77.8029,161.0669,80.0134,170.91,79.6758" style="stroke: #000000; stroke-width: 1.0;"/><!--MD5=[f9baba7c80252de6045edbd2fdff5118]
link <b>App.test</b> to Meals--><path d="M66.6994,49.892 C78.7089,57.282 94.6056,67.065 107.062,74.7304 " fill="none" id="&lt;b&gt;App.test&lt;/b&gt;-&gt;Meals" style="stroke: #000000; stroke-width: 1.0;"/><polygon fill="#000000" points="111.482,77.4504,105.9147,69.3261,107.2241,74.8293,101.7209,76.1387,111.482,77.4504" style="stroke: #000000; stroke-width: 1.0;"/><!--MD5=[fff7867060f51ffebbf013e1818505ff]
link Bookings to _context--><path d="M68.4702,99.1496 C83.215,106.1198 103.1588,115.5478 120.384,123.6907 " fill="none" id="Bookings-&gt;_context" style="stroke: #000000; stroke-width: 0.5;"/><polygon fill="#000000" points="125.164,125.9502,118.7352,118.4889,120.6432,123.8143,115.3178,125.7222,125.164,125.9502" style="stroke: #000000; stroke-width: 0.5;"/><!--MD5=[3170984ba91e787e7f45a52d3bc4f499]
link Bookings to helper--><path d="M47,101.0605 C47,107.6592 47,115.9587 47,123.2801 " fill="none" id="Bookings-&gt;helper" style="stroke: #000000; stroke-width: 0.5;"/><polygon fill="#000000" points="47,128.6438,51,119.6438,47,123.6438,43,119.6438,47,128.6438" style="stroke: #000000; stroke-width: 0.5;"/><!--MD5=[98c1134b933fd169dc89e1ff3a995f92]
link Error to _context--><path d="M181.12,100.5405 C177.642,106.3751 173.314,113.6342 169.289,120.3864 " fill="none" id="Error-&gt;_context" style="stroke: #000000; stroke-width: 0.5;"/><polygon fill="#000000" points="166.565,124.9562,174.6096,119.2743,169.1255,120.6616,167.7382,115.1775,166.565,124.9562" style="stroke: #000000; stroke-width: 0.5;"/><!--MD5=[893f7b7637e22df589de0e5c7f34855e]
link <b>index</b> to App--><path d="M157.641,38 C160.082,38 162.523,38 164.964,38 " fill="none" id="&lt;b&gt;index&lt;/b&gt;-&gt;App" style="stroke: #000000; stroke-width: 1.0;"/><polygon fill="#000000" points="169.974,38,160.974,34,164.974,38,160.974,42,169.974,38" style="stroke: #000000; stroke-width: 1.0;"/><!--MD5=[b5eeaccd7aa35386fa84df0f1eb12ea5]
link Meals to _context--><path d="M133.807,100.7996 C137.122,106.5454 141.207,113.626 145.021,120.2356 " fill="none" id="Meals-&gt;_context" style="stroke: #000000; stroke-width: 0.5;"/><polygon fill="#000000" points="147.604,124.714,146.5704,114.9195,145.105,120.3833,139.6413,118.9179,147.604,124.714" style="stroke: #000000; stroke-width: 0.5;"/><script type="text/plantuml"><![CDATA[MD5=[513dcda6e041233cd2f719d914a19b46]
@startuml

scale max 1920 width
top to bottom direction

skinparam nodesep 12
skinparam ranksep 24
skinparam monochrome true
skinparam shadowing false
skinparam defaultFontName Tahoma
skinparam defaultFontSize 12
skinparam roundCorner 6
skinparam dpi 150
skinparam arrowColor black
skinparam arrowThickness 0.5
skinparam packageTitleAlignment left

skinparam usecase {
  borderThickness 0.5
}

skinparam rectangle {
  borderThickness 0.5
}

skinparam component {
  borderThickness 1
}


(App)
(<b>App.test</b>)
(Bookings)
rectangle "context" as _context
(Error)
(helper)
(<b>index</b>)
(Meals)


(App) --> (Bookings)
(App) --> _context
(App) --> (Error)
(App) --> (Meals)
(<b>App.test</b>) -[thickness=1]> (App)
(<b>App.test</b>) --[thickness=1]> (Bookings)
(<b>App.test</b>) --[thickness=1]> (Error)
(<b>App.test</b>) --[thickness=1]> (Meals)
(Bookings) --> _context
(Bookings) --> (helper)
(Error) --> _context
(<b>index</b>) -[thickness=1]> (App)
(Meals) --> _context

@enduml


' View and edit on https://arkit.pro
]]></script></g></svg>